@startuml
skinparam fixCircleLabelOverlapping true
skinparam componentStyle uml2
component "com_github_joffryferrater_foodtrayservice\n\n\n\n\n\n" {
[com_github_joffryferrater_foodtrayservice_repository_ItemServiceRepository]
[com_github_joffryferrater_foodtrayservice_FoodTrayController]
[com_github_joffryferrater_foodtrayservice_repository_PriceServiceRepository]
portin " " as com_github_joffryferrater_foodtrayservice_requires_foodtray_service_foodtrays
portout " " as com_github_joffryferrater_foodtrayservice_provides_PRICE_SERVICE_prices_search_findByItemCode_itemCode_
portout " " as com_github_joffryferrater_foodtrayservice_provides_ITEM_SERVICE_items_search_findByItemCode_itemCode_
[com_github_joffryferrater_foodtrayservice_FoodTrayController]..>[com_github_joffryferrater_foodtrayservice_repository_PriceServiceRepository] : requires
[com_github_joffryferrater_foodtrayservice_FoodTrayController]..>[com_github_joffryferrater_foodtrayservice_repository_ItemServiceRepository] : requires
"com_github_joffryferrater_foodtrayservice_requires_foodtray_service_foodtrays"--[com_github_joffryferrater_foodtrayservice_FoodTrayController]
[com_github_joffryferrater_foodtrayservice_repository_ItemServiceRepository].."com_github_joffryferrater_foodtrayservice_provides_ITEM_SERVICE_items_search_findByItemCode_itemCode_"
[com_github_joffryferrater_foodtrayservice_repository_PriceServiceRepository].."com_github_joffryferrater_foodtrayservice_provides_PRICE_SERVICE_prices_search_findByItemCode_itemCode_"
}
interface "foodtray-service/foodtrays" as interface.foodtray_service_foodtrays
interface.foodtray_service_foodtrays--"com_github_joffryferrater_foodtrayservice_requires_foodtray_service_foodtrays"
interface "ITEM-SERVICE/items/search/findByItemCode?itemCode=" as interface.ITEM_SERVICE_items_search_findByItemCode_itemCode_
"com_github_joffryferrater_foodtrayservice_provides_ITEM_SERVICE_items_search_findByItemCode_itemCode_"..>interface.ITEM_SERVICE_items_search_findByItemCode_itemCode_ : requires
interface "PRICE-SERVICE/prices/search/findByItemCode?itemCode=" as interface.PRICE_SERVICE_prices_search_findByItemCode_itemCode_
"com_github_joffryferrater_foodtrayservice_provides_PRICE_SERVICE_prices_search_findByItemCode_itemCode_"..>interface.PRICE_SERVICE_prices_search_findByItemCode_itemCode_ : requires
component "com_github_joffryferrater_foodtrayservice_service_TrayItemService\n\n\n\n\n\n" {
[com_github_joffryferrater_foodtrayservice_service_TrayItemService]
}
interface "ITEM-SERVICE/items/search/findByItemCode?itemCode=" as interface.ITEM_SERVICE_items_search_findByItemCode_itemCode_
interface.ITEM_SERVICE_items_search_findByItemCode_itemCode_--[ITEM_SERVICE_items_search_findByItemCode_itemCode_Provider]
interface "PRICE-SERVICE/prices/search/findByItemCode?itemCode=" as interface.PRICE_SERVICE_prices_search_findByItemCode_itemCode_
interface.PRICE_SERVICE_prices_search_findByItemCode_itemCode_--[PRICE_SERVICE_prices_search_findByItemCode_itemCode_Provider]

@enduml
